<svg version="1.1" id="Layer_1" xmlns="http://www.w3.org/2000/svg" xmlns:xlink="http://www.w3.org/1999/xlink" x="0px" y="0px"
	 width="100%" viewBox="0 0 500 500" enable-background="new 0 0 500 500" xml:space="preserve">
<path fill="#000101" opacity="1.000000" stroke="none" 
	d="
M501.000000,232.000000 
	C501.000000,245.020889 501.000000,258.041779 500.626038,271.700806 
	C496.863281,305.073120 488.696198,336.490967 473.047882,365.567688 
	C432.924103,440.123047 370.827881,484.160370 287.389038,498.197083 
	C281.599365,499.171082 275.796661,500.067505 270.000000,501.000000 
	C257.645782,501.000000 245.291550,501.000000 232.254135,500.645111 
	C201.821152,497.735138 173.115997,490.905853 146.234055,477.791931 
	C66.400635,438.846344 18.797594,375.554626 3.828496,287.882507 
	C2.868171,282.257996 1.942040,276.627625 1.000001,271.000000 
	C1.000000,258.312439 1.000000,245.624878 1.349851,232.247406 
	C4.009739,217.636749 5.332506,203.465729 8.787821,189.835312 
	C33.810898,91.125069 114.395226,18.653555 215.062088,3.734514 
	C221.045074,2.847821 227.020859,1.912624 233.000000,1.000000 
	C245.020889,1.000000 257.041779,1.000000 269.726318,1.369023 
	C289.002197,3.336957 307.508575,6.094105 325.121216,12.256631 
	C421.722076,46.056530 479.934937,113.009514 498.154816,214.109833 
	C499.225555,220.051178 500.057159,226.035614 501.000000,232.000000 
M264.533783,168.959152 
	C246.514542,154.427231 225.372910,147.439468 202.786179,146.321426 
	C175.363525,144.964005 147.845764,145.526505 120.368950,145.280441 
	C120.094032,145.277954 119.816437,145.575165 119.347229,145.842255 
	C119.347229,217.484268 119.347229,289.223358 119.347229,361.177673 
	C120.651314,361.299652 121.782921,361.496735 122.914703,361.497772 
	C143.075806,361.516052 163.257614,362.066620 183.390869,361.317291 
	C197.123276,360.806244 211.109772,359.834808 224.420990,356.691010 
	C260.962799,348.060608 285.187744,325.632812 294.543243,288.718811 
	C300.926636,263.531891 300.272186,238.237534 293.192749,213.220886 
	C288.269379,195.823029 279.117249,181.020462 264.533783,168.959152 
M324.894928,202.499969 
	C324.894928,255.394440 324.894928,308.288910 324.894928,361.177277 
	C342.070892,361.177277 358.632172,361.177277 375.631836,361.177277 
	C375.631836,356.947693 375.631836,353.046295 375.631836,348.798828 
	C388.010376,359.160889 397.601562,361.487000 408.621063,356.958649 
	C416.019012,353.918518 420.143524,348.346130 421.373871,340.215179 
	C418.135223,340.215179 415.185547,340.215179 412.244873,340.215179 
	C406.360413,352.735779 391.529663,354.825867 384.064728,344.208679 
	C378.712738,336.596680 378.640015,322.474365 383.913452,314.816620 
	C389.627441,306.519073 404.675415,304.936676 409.326385,312.980682 
	C412.629120,318.692871 416.362518,317.889130 421.027710,317.465454 
	C420.177795,309.915588 416.015717,304.367004 408.604706,301.843140 
	C396.237823,297.631500 385.113983,299.510132 375.533691,310.812286 
	C375.533691,254.944656 375.533691,200.262512 375.533691,145.405350 
	C358.435822,145.405350 341.872345,145.405350 324.894928,145.405350 
	C324.894928,164.264938 324.894928,182.882462 324.894928,202.499969 
M34.183735,206.499924 
	C34.183735,258.044586 34.183735,309.589233 34.183735,361.271790 
	C51.446461,361.271790 68.038048,361.271790 84.680969,361.271790 
	C84.680969,289.178894 84.680969,217.328857 84.680969,145.421448 
	C67.806526,145.421448 51.233921,145.421448 34.183735,145.421448 
	C34.183735,165.617859 34.183735,185.558884 34.183735,206.499924 
M466.961914,305.558105 
	C463.702911,304.044922 460.517883,301.457031 457.170593,301.226624 
	C448.274750,300.614227 439.308960,301.018616 430.271027,301.018616 
	C430.271027,320.058258 430.271027,338.942413 430.271027,357.662292 
	C433.301086,357.662292 436.030273,357.662292 439.192383,357.662292 
	C439.192383,349.757935 439.192383,342.195221 439.192383,334.676788 
	C452.849792,334.081940 452.850647,334.081573 457.728790,346.046021 
	C458.355896,347.584106 458.958923,349.132080 459.589508,350.668732 
	C462.795990,358.481903 462.797913,358.481995 471.338196,357.868561 
	C471.471313,357.858978 471.596161,357.733978 472.015411,357.502350 
	C468.615967,349.365204 465.199310,341.186920 461.830078,333.122131 
	C472.146362,326.098816 474.126862,315.906067 466.961914,305.558105 
z"/>
<path fill="#0CBFDE" opacity="1.000000" stroke="none" 
	d="
M501.000000,231.531342 
	C500.057159,226.035614 499.225555,220.051178 498.154816,214.109833 
	C479.934937,113.009514 421.722076,46.056530 325.121216,12.256631 
	C307.508575,6.094105 289.002197,3.336957 270.195007,1.369023 
	C346.927032,1.000000 423.854065,1.000000 501.000000,1.000000 
	C501.000000,77.687424 501.000000,154.375046 501.000000,231.531342 
z"/>
<path fill="#0CBFDE" opacity="1.000000" stroke="none" 
	d="
M232.531342,1.000000 
	C227.020859,1.912624 221.045074,2.847821 215.062088,3.734514 
	C114.395226,18.653555 33.810898,91.125069 8.787821,189.835312 
	C5.332506,203.465729 4.009739,217.636749 1.349851,231.778748 
	C1.000000,155.072800 1.000000,78.145592 1.000000,1.000000 
	C78.020760,1.000000 155.041718,1.000000 232.531342,1.000000 
z"/>
<path fill="#0CBFDE" opacity="1.000000" stroke="none" 
	d="
M1.000001,271.468658 
	C1.942040,276.627625 2.868171,282.257996 3.828496,287.882507 
	C18.797594,375.554626 66.400635,438.846344 146.234055,477.791931 
	C173.115997,490.905853 201.821152,497.735138 231.785477,500.645111 
	C155.073120,501.000000 78.146248,501.000000 1.000000,501.000000 
	C1.000000,424.645905 1.000000,348.291626 1.000001,271.468658 
z"/>
<path fill="#0CBFDE" opacity="1.000000" stroke="none" 
	d="
M270.468658,501.000000 
	C275.796661,500.067505 281.599365,499.171082 287.389038,498.197083 
	C370.827881,484.160370 432.924103,440.123047 473.047882,365.567688 
	C488.696198,336.490967 496.863281,305.073120 500.626038,272.169495 
	C501.000000,348.260681 501.000000,424.521393 501.000000,501.000000 
	C424.312592,501.000000 347.624939,501.000000 270.468658,501.000000 
z"/>
<path fill="#FDFDFD" opacity="1.000000" stroke="none" 
	d="
M264.809204,169.183640 
	C279.117249,181.020462 288.269379,195.823029 293.192749,213.220886 
	C300.272186,238.237534 300.926636,263.531891 294.543243,288.718811 
	C285.187744,325.632812 260.962799,348.060608 224.420990,356.691010 
	C211.109772,359.834808 197.123276,360.806244 183.390869,361.317291 
	C163.257614,362.066620 143.075806,361.516052 122.914703,361.497772 
	C121.782921,361.496735 120.651314,361.299652 119.347229,361.177673 
	C119.347229,289.223358 119.347229,217.484268 119.347229,145.842255 
	C119.816437,145.575165 120.094032,145.277954 120.368950,145.280441 
	C147.845764,145.526505 175.363525,144.964005 202.786179,146.321426 
	C225.372910,147.439468 246.514542,154.427231 264.809204,169.183640 
M196.930222,191.306976 
	C188.037216,191.306976 179.144226,191.306976 170.209702,191.306976 
	C170.209702,232.632919 170.209702,274.166107 170.209702,316.445435 
	C180.416885,315.947083 190.421463,316.090149 200.250778,314.847198 
	C220.687332,312.262939 236.235947,302.445435 243.514847,282.270447 
	C247.987579,269.873352 248.761337,256.970795 247.467468,243.897476 
	C246.385803,232.968460 243.428650,222.700409 237.032318,213.645370 
	C227.463608,200.099350 213.588470,194.078934 196.930222,191.306976 
z"/>
<path fill="#FCFCFC" opacity="1.000000" stroke="none" 
	d="
M324.894928,201.999969 
	C324.894928,182.882462 324.894928,164.264938 324.894928,145.405350 
	C341.872345,145.405350 358.435822,145.405350 375.533691,145.405350 
	C375.533691,200.262512 375.533691,254.944656 375.533691,310.812286 
	C385.113983,299.510132 396.237823,297.631500 408.604706,301.843140 
	C416.015717,304.367004 420.177795,309.915588 421.027710,317.465454 
	C416.362518,317.889130 412.629120,318.692871 409.326385,312.980682 
	C404.675415,304.936676 389.627441,306.519073 383.913452,314.816620 
	C378.640015,322.474365 378.712738,336.596680 384.064728,344.208679 
	C391.529663,354.825867 406.360413,352.735779 412.244873,340.215179 
	C415.185547,340.215179 418.135223,340.215179 421.373871,340.215179 
	C420.143524,348.346130 416.019012,353.918518 408.621063,356.958649 
	C397.601562,361.487000 388.010376,359.160889 375.631836,348.798828 
	C375.631836,353.046295 375.631836,356.947693 375.631836,361.177277 
	C358.632172,361.177277 342.070892,361.177277 324.894928,361.177277 
	C324.894928,308.288910 324.894928,255.394440 324.894928,201.999969 
z"/>
<path fill="#FDFDFD" opacity="1.000000" stroke="none" 
	d="
M34.183735,205.999908 
	C34.183735,185.558884 34.183735,165.617859 34.183735,145.421448 
	C51.233921,145.421448 67.806526,145.421448 84.680969,145.421448 
	C84.680969,217.328857 84.680969,289.178894 84.680969,361.271790 
	C68.038048,361.271790 51.446461,361.271790 34.183735,361.271790 
	C34.183735,309.589233 34.183735,258.044586 34.183735,205.999908 
z"/>
<path fill="#FAFAFA" opacity="1.000000" stroke="none" 
	d="
M467.217010,305.830688 
	C474.126862,315.906067 472.146362,326.098816 461.830078,333.122131 
	C465.199310,341.186920 468.615967,349.365204 472.015411,357.502350 
	C471.596161,357.733978 471.471313,357.858978 471.338196,357.868561 
	C462.797913,358.481995 462.795990,358.481903 459.589508,350.668732 
	C458.958923,349.132080 458.355896,347.584106 457.728790,346.046021 
	C452.850647,334.081573 452.849792,334.081940 439.192383,334.676788 
	C439.192383,342.195221 439.192383,349.757935 439.192383,357.662292 
	C436.030273,357.662292 433.301086,357.662292 430.271027,357.662292 
	C430.271027,338.942413 430.271027,320.058258 430.271027,301.018616 
	C439.308960,301.018616 448.274750,300.614227 457.170593,301.226624 
	C460.517883,301.457031 463.702911,304.044922 467.217010,305.830688 
M438.912537,312.580841 
	C438.912537,317.177094 438.912537,321.773376 438.912537,326.307709 
	C444.607086,326.307709 449.758850,326.712494 454.816498,326.195953 
	C460.067413,325.659668 462.354340,322.448364 462.225159,317.337921 
	C462.102570,312.489288 459.297302,309.380402 454.133545,308.999359 
	C449.831482,308.681915 445.485474,308.719421 441.176971,308.944916 
	C440.378204,308.986725 439.665405,310.671143 438.912537,312.580841 
z"/>
<path fill="#010101" opacity="1.000000" stroke="none" 
	d="
M197.369873,191.388458 
	C213.588470,194.078934 227.463608,200.099350 237.032318,213.645370 
	C243.428650,222.700409 246.385803,232.968460 247.467468,243.897476 
	C248.761337,256.970795 247.987579,269.873352 243.514847,282.270447 
	C236.235947,302.445435 220.687332,312.262939 200.250778,314.847198 
	C190.421463,316.090149 180.416885,315.947083 170.209702,316.445435 
	C170.209702,274.166107 170.209702,232.632919 170.209702,191.306976 
	C179.144226,191.306976 188.037216,191.306976 197.369873,191.388458 
z"/>
<path fill="#050505" opacity="1.000000" stroke="none" 
	d="
M438.912720,312.089142 
	C439.665405,310.671143 440.378204,308.986725 441.176971,308.944916 
	C445.485474,308.719421 449.831482,308.681915 454.133545,308.999359 
	C459.297302,309.380402 462.102570,312.489288 462.225159,317.337921 
	C462.354340,322.448364 460.067413,325.659668 454.816498,326.195953 
	C449.758850,326.712494 444.607086,326.307709 438.912537,326.307709 
	C438.912537,321.773376 438.912537,317.177094 438.912720,312.089142 
z"/>
</svg>